<svg xmlns="http://www.w3.org/2000/svg" height="512pt" version="1.1" viewBox="0 -20 512.00241 512" width="512pt">
<g id="surface1">
<path d="M 343.152344 168.261719 L 334.867188 126.25 C 331.882812 111.125 324.460938 97.234375 313.546875 86.347656 L 296.441406 69.292969 L 296.441406 43.007812 L 244.46875 43.007812 L 244.46875 102.300781 L 233.414062 113.324219 C 218.824219 127.871094 210.625 147.625 210.625 168.222656 L 210.625 248.386719 C 213.066406 252.089844 216.945312 254.757812 221.578125 255.359375 C 230.882812 256.574219 238.855469 249.6875 239.472656 240.78125 L 239.472656 254.25 C 239.472656 256.804688 240.140625 259.304688 241.304688 261.550781 C 241.796875 260.195312 242.113281 258.753906 242.214844 257.257812 L 242.214844 263.089844 C 244.835938 267.066406 249.074219 269.960938 253.867188 270.378906 C 263.25 271.203125 271.117188 263.828125 271.117188 254.621094 L 271.117188 240.78125 C 271.734375 249.6875 279.703125 256.570312 289.007812 255.359375 C 296.941406 254.328125 302.707031 247.265625 302.707031 239.269531 L 302.707031 158.324219 C 302.707031 155.570312 306.644531 155.09375 307.296875 157.769531 L 311.484375 174.847656 C 313.523438 183.15625 321.574219 188.769531 330.007812 187.332031 C 338.976562 185.800781 344.910156 177.179688 343.152344 168.261719 Z M 343.152344 168.261719 " style=" stroke:none;fill-rule:nonzero;fill:rgb(98.823529%,77.647059%,61.568627%);fill-opacity:1;" />
<path d="M 234.617188 356.558594 C 236.871094 355.257812 238.671875 353.480469 239.992188 351.433594 C 241.363281 347.820312 241.449219 343.753906 239.878906 339.980469 C 236.277344 331.316406 226.332031 327.855469 218.308594 331.777344 L 226.472656 327.0625 C 224.207031 327.097656 221.925781 327.601562 219.78125 328.648438 L 232.789062 321.140625 C 234 320.441406 235.085938 319.597656 236.058594 318.65625 C 238.375 314.324219 238.839844 309.007812 236.742188 304.507812 C 232.765625 295.972656 222.445312 292.847656 214.472656 297.453125 L 202.484375 304.371094 C 209.890625 299.382812 211.867188 289.039062 206.164062 281.585938 C 201.304688 275.234375 192.308594 273.769531 185.382812 277.769531 L 115.28125 318.242188 C 112.894531 319.621094 110.515625 316.449219 112.503906 314.542969 L 125.199219 302.378906 C 131.378906 296.457031 132.214844 286.679688 126.75 280.09375 C 125.25 278.285156 123.4375 276.898438 121.460938 275.925781 L 115.273438 279.496094 C 112.890625 280.871094 110.507812 277.699219 112.496094 275.796875 L 114.105469 274.253906 C 110.394531 274.300781 106.679688 275.609375 103.664062 278.246094 L 71.421875 306.425781 C 59.816406 316.570312 51.496094 329.945312 47.527344 344.84375 L 41.308594 368.183594 L 26.773438 376.574219 L 53.148438 422.253906 L 84.453125 404.175781 L 99.53125 408.238281 C 119.421875 413.601562 140.625 410.824219 158.46875 400.523438 L 183.722656 385.941406 Z M 234.617188 356.558594 " style=" stroke:none;fill-rule:nonzero;fill:rgb(98.823529%,77.647059%,61.568627%);fill-opacity:1;" />
<path d="M 412.367188 388.601562 L 408.347656 373.515625 C 403.042969 353.609375 390.035156 336.632812 372.195312 326.332031 L 346.9375 311.75 L 302.945312 286.351562 C 298.375 293.667969 300.523438 303.136719 307.511719 307.84375 L 295.847656 301.109375 C 289.136719 297.234375 279.800781 298.898438 275.085938 304.992188 C 276.1875 306.601562 277.597656 308.027344 279.296875 309.171875 L 274.226562 306.242188 C 269.457031 313.878906 271.976562 323.867188 279.703125 328.332031 L 291.691406 335.25 C 283.667969 331.332031 273.722656 334.789062 270.117188 343.457031 C 267.046875 350.839844 270.277344 359.363281 277.203125 363.363281 L 347.308594 403.835938 C 349.691406 405.214844 348.132812 408.859375 345.492188 408.089844 L 328.609375 403.179688 C 320.390625 400.789062 311.503906 404.953125 308.535156 412.976562 C 305.375 421.511719 309.875 430.960938 318.476562 433.894531 L 359.003906 447.726562 C 373.589844 452.707031 389.332031 453.222656 404.21875 449.210938 L 421.863281 444.457031 L 443.675781 406.679688 Z M 412.367188 388.601562 " style=" stroke:none;fill-rule:nonzero;fill:rgb(98.823529%,77.647059%,61.568627%);fill-opacity:1;" />
<path d="M 210.132812 20 C 212.773438 20 215.339844 18.929688 217.210938 17.070312 C 219.070312 15.210938 220.132812 12.632812 220.132812 10 C 220.132812 7.371094 219.070312 4.792969 217.210938 2.929688 C 215.339844 1.070312 212.773438 0 210.132812 0 C 207.5 0 204.921875 1.070312 203.0625 2.929688 C 201.203125 4.792969 200.132812 7.371094 200.132812 10 C 200.132812 12.632812 201.203125 15.210938 203.0625 17.070312 C 204.921875 18.929688 207.5 20 210.132812 20 Z M 210.132812 20 " style=" stroke:none;fill-rule:nonzero;fill:rgb(0%,0%,0%);fill-opacity:1;" />
<path d="M 279.210938 264.335938 C 281.636719 265.09375 284.210938 265.5 286.882812 265.5 C 301.121094 265.5 312.703125 253.914062 312.703125 239.675781 L 312.703125 193.09375 C 318.144531 196.75 324.941406 198.378906 331.832031 197.164062 C 338.8125 195.933594 344.867188 192.035156 348.875 186.183594 C 352.882812 180.335938 354.332031 173.285156 352.960938 166.328125 L 344.675781 124.316406 C 341.296875 107.179688 332.976562 91.601562 320.605469 79.269531 L 306.441406 65.140625 L 306.441406 10 C 306.441406 4.476562 301.960938 0 296.441406 0 C 290.917969 0 286.441406 4.476562 286.441406 10 L 286.441406 69.292969 C 286.441406 71.949219 287.496094 74.496094 289.378906 76.375 L 306.484375 93.429688 C 316.027344 102.945312 322.449219 114.964844 325.054688 128.183594 L 333.339844 170.195312 C 333.664062 171.835938 333.320312 173.5 332.375 174.878906 C 331.429688 176.257812 330.003906 177.175781 328.355469 177.46875 C 325.171875 178.035156 322.0625 176.007812 321.292969 172.859375 L 317.011719 155.398438 C 315.5 149.246094 309.84375 145.332031 303.554688 146.09375 C 297.265625 146.851562 292.703125 152.003906 292.703125 158.335938 L 292.703125 239.675781 C 292.703125 242.886719 290.089844 245.5 286.878906 245.5 C 283.929688 245.5 281.492188 243.292969 281.113281 240.441406 L 281.113281 197.96875 C 281.113281 192.445312 276.636719 187.96875 271.113281 187.96875 C 271.105469 187.96875 271.097656 187.96875 271.085938 187.96875 C 271.078125 187.96875 271.066406 187.96875 271.058594 187.96875 C 265.535156 187.96875 261.058594 192.445312 261.058594 197.96875 L 261.058594 239.675781 C 261.058594 240.222656 261.082031 240.761719 261.113281 241.296875 L 261.113281 254.621094 C 261.113281 257.832031 258.503906 260.441406 255.292969 260.441406 C 252.082031 260.441406 249.472656 257.832031 249.472656 254.621094 L 249.472656 241.292969 C 249.503906 240.757812 249.527344 240.21875 249.527344 239.675781 L 249.527344 197.96875 C 249.527344 192.445312 245.050781 187.96875 239.527344 187.96875 C 239.519531 187.96875 239.507812 187.96875 239.5 187.96875 C 239.488281 187.96875 239.480469 187.96875 239.472656 187.96875 C 233.949219 187.96875 229.472656 192.445312 229.472656 197.96875 L 229.472656 240.4375 C 229.097656 243.289062 226.65625 245.5 223.703125 245.5 C 220.492188 245.5 217.882812 242.886719 217.882812 239.679688 L 217.882812 224.761719 C 217.914062 224.226562 217.9375 223.6875 217.9375 223.144531 L 217.9375 197.96875 C 217.9375 192.445312 213.460938 187.96875 207.9375 187.96875 C 207.929688 187.96875 207.917969 187.96875 207.910156 187.96875 C 207.902344 187.96875 207.890625 187.96875 207.882812 187.96875 C 202.359375 187.96875 197.882812 192.445312 197.882812 197.96875 L 197.882812 223.90625 C 197.507812 226.757812 195.066406 228.96875 192.113281 228.96875 C 188.90625 228.96875 186.292969 226.355469 186.292969 223.144531 L 186.292969 135.21875 C 186.292969 117.144531 193.339844 100.160156 206.140625 87.398438 L 217.195312 76.375 C 219.078125 74.5 220.132812 71.949219 220.132812 69.292969 L 220.132812 45.664062 C 220.132812 40.140625 215.65625 35.664062 210.132812 35.664062 C 204.613281 35.664062 200.132812 40.140625 200.132812 45.664062 L 200.132812 65.140625 L 192.019531 73.234375 C 175.429688 89.777344 166.292969 111.789062 166.292969 135.214844 L 166.292969 223.144531 C 166.292969 237.382812 177.875 248.964844 192.113281 248.964844 C 194.589844 248.964844 196.980469 248.609375 199.25 247.957031 C 202.707031 258.144531 212.359375 265.5 223.703125 265.5 C 226.371094 265.5 228.949219 265.089844 231.371094 264.335938 C 235.21875 273.769531 244.488281 280.441406 255.289062 280.441406 C 266.09375 280.441406 275.363281 273.773438 279.210938 264.335938 Z M 279.210938 264.335938 " style=" stroke:none;fill-rule:nonzero;fill:rgb(0%,0%,0%);fill-opacity:1;" />
<path d="M 247.597656 333.070312 C 246.265625 330.765625 244.628906 328.738281 242.769531 327.019531 C 244.859375 324.332031 246.417969 321.226562 247.324219 317.839844 C 249.109375 311.175781 248.195312 304.21875 244.746094 298.242188 C 239.34375 288.890625 228.9375 284.199219 218.84375 285.582031 C 218.277344 283.078125 217.328125 280.644531 216.007812 278.359375 C 212.5625 272.386719 206.992188 268.113281 200.328125 266.328125 C 193.667969 264.542969 186.707031 265.457031 180.734375 268.910156 L 140.394531 292.199219 C 140.835938 285.660156 138.851562 278.960938 134.355469 273.601562 C 129.796875 268.167969 123.394531 264.878906 116.324219 264.332031 C 109.257812 263.789062 102.421875 266.050781 97.082031 270.71875 L 64.839844 298.898438 C 51.691406 310.394531 42.363281 325.390625 37.863281 342.269531 L 32.714844 361.601562 L 5 377.601562 C 0.21875 380.363281 -1.421875 386.476562 1.339844 391.261719 C 3.195312 394.46875 6.554688 396.261719 10.011719 396.261719 C 11.707031 396.261719 13.425781 395.832031 15 394.921875 L 46.308594 376.84375 C 48.609375 375.515625 50.289062 373.328125 50.972656 370.761719 L 57.191406 347.417969 C 60.660156 334.394531 67.859375 322.828125 78.003906 313.957031 L 110.246094 285.777344 C 111.503906 284.675781 113.113281 284.140625 114.78125 284.269531 C 116.449219 284.398438 117.957031 285.175781 119.035156 286.457031 C 121.117188 288.9375 120.914062 292.636719 118.574219 294.878906 L 105.597656 307.316406 C 101.023438 311.699219 100.460938 318.554688 104.265625 323.621094 C 108.066406 328.6875 114.808594 330.066406 120.292969 326.898438 L 190.734375 286.230469 C 192.082031 285.453125 193.652344 285.246094 195.152344 285.648438 C 196.65625 286.050781 197.910156 287.011719 198.691406 288.359375 C 199.464844 289.707031 199.671875 291.277344 199.273438 292.777344 C 198.917969 294.09375 198.117188 295.199219 197.023438 295.980469 L 160.40625 317.121094 C 155.625 319.882812 153.984375 325.996094 156.746094 330.78125 C 156.753906 330.789062 156.757812 330.796875 156.761719 330.804688 C 156.769531 330.8125 156.769531 330.820312 156.777344 330.828125 C 159.535156 335.609375 165.652344 337.25 170.4375 334.488281 L 206.558594 313.632812 C 207.027344 313.363281 207.484375 313.070312 207.933594 312.773438 L 219.472656 306.113281 C 222.25 304.507812 225.820312 305.464844 227.425781 308.246094 C 229.03125 311.023438 228.074219 314.59375 225.292969 316.199219 L 213.75 322.863281 C 213.273438 323.101562 212.796875 323.351562 212.324219 323.621094 L 176.203125 344.476562 C 171.417969 347.238281 169.78125 353.355469 172.542969 358.136719 C 172.917969 358.785156 173.375 359.394531 173.882812 359.941406 C 175.800781 362.03125 178.484375 363.1875 181.238281 363.1875 C 182.9375 363.1875 184.65625 362.753906 186.230469 361.847656 L 223.011719 340.609375 C 225.667969 339.507812 228.800781 340.515625 230.277344 343.074219 C 231.882812 345.851562 230.929688 349.421875 228.148438 351.027344 L 215.234375 358.484375 C 214.75 358.722656 214.273438 358.972656 213.800781 359.246094 L 191.996094 371.835938 C 187.214844 374.59375 185.574219 380.710938 188.335938 385.496094 C 190.117188 388.5625 193.480469 390.542969 197.035156 390.542969 C 198.730469 390.542969 200.449219 390.113281 202.023438 389.203125 L 224.492188 376.230469 C 225.667969 375.742188 226.964844 375.648438 228.21875 375.984375 C 229.722656 376.386719 230.976562 377.351562 231.753906 378.695312 C 233.359375 381.476562 232.402344 385.046875 229.625 386.652344 L 197.574219 405.152344 L 153.476562 430.613281 C 137.824219 439.652344 119.589844 442.039062 102.140625 437.335938 L 87.066406 433.273438 C 84.496094 432.582031 81.765625 432.941406 79.460938 434.269531 L 48.15625 452.34375 C 43.371094 455.105469 41.734375 461.222656 44.496094 466.003906 C 46.347656 469.214844 49.707031 471.007812 53.164062 471.007812 C 54.859375 471.007812 56.578125 470.574219 58.15625 469.664062 L 85.867188 453.664062 L 96.933594 456.648438 C 119.554688 462.742188 143.1875 459.648438 163.476562 447.9375 L 188.730469 433.355469 L 207.574219 422.476562 L 209.285156 421.488281 L 239.621094 403.972656 C 251.953125 396.851562 256.191406 381.027344 249.074219 368.695312 C 247.847656 366.574219 246.351562 364.671875 244.636719 363.015625 C 251.726562 354.921875 253.269531 342.890625 247.597656 333.070312 Z M 247.597656 333.070312 " style=" stroke:none;fill-rule:nonzero;fill:rgb(0%,0%,0%);fill-opacity:1;" />
<path d="M 507 377.597656 L 479.285156 361.597656 L 476.335938 350.523438 C 470.304688 327.886719 455.808594 308.96875 435.523438 297.253906 L 391.421875 271.792969 L 359.375 253.289062 C 353.398438 249.839844 346.441406 248.925781 339.78125 250.710938 C 333.117188 252.496094 327.546875 256.765625 324.101562 262.738281 C 322.863281 264.878906 321.980469 267.128906 321.410156 269.414062 C 317.566406 268.640625 313.566406 268.753906 309.667969 269.800781 C 303.003906 271.585938 297.4375 275.855469 293.988281 281.832031 C 292.667969 284.117188 291.722656 286.550781 291.15625 289.050781 C 281.0625 287.667969 270.652344 292.363281 265.253906 301.714844 C 259.855469 311.066406 260.992188 322.425781 267.238281 330.476562 C 265.355469 332.21875 263.722656 334.253906 262.402344 336.542969 C 255.28125 348.875 259.523438 364.695312 271.851562 371.816406 L 312.195312 395.109375 C 306.308594 397.992188 301.5 403.0625 299.105469 409.636719 C 296.679688 416.300781 297.03125 423.492188 300.089844 429.886719 C 303.152344 436.285156 308.535156 441.066406 315.246094 443.355469 L 355.769531 457.1875 C 372.300781 462.832031 389.953125 463.410156 406.816406 458.867188 L 426.132812 453.660156 L 453.847656 469.660156 C 455.421875 470.570312 457.140625 471.003906 458.839844 471 C 462.292969 471 465.65625 469.207031 467.507812 466 C 470.269531 461.21875 468.628906 455.101562 463.847656 452.339844 L 432.539062 434.265625 C 430.238281 432.933594 427.503906 432.578125 424.9375 433.269531 L 401.613281 439.554688 C 388.605469 443.0625 374.984375 442.613281 362.230469 438.261719 L 321.703125 424.429688 C 320.121094 423.886719 318.851562 422.761719 318.128906 421.253906 C 317.410156 419.746094 317.328125 418.046875 317.898438 416.476562 C 319.003906 413.433594 322.3125 411.761719 325.421875 412.664062 L 342.683594 417.6875 C 348.765625 419.457031 354.984375 416.511719 357.472656 410.6875 C 359.957031 404.859375 357.78125 398.332031 352.292969 395.167969 L 281.851562 354.496094 C 279.070312 352.890625 278.117188 349.324219 279.722656 346.542969 C 280.5 345.195312 281.753906 344.230469 283.253906 343.828125 C 284.507812 343.492188 285.804688 343.585938 286.984375 344.078125 L 323.769531 365.3125 C 325.34375 366.222656 327.0625 366.65625 328.757812 366.65625 C 331.511719 366.65625 334.191406 365.5 336.109375 363.417969 C 336.621094 362.867188 337.082031 362.253906 337.457031 361.605469 C 340.21875 356.820312 338.582031 350.707031 333.796875 347.945312 L 297.675781 327.089844 C 297.203125 326.816406 296.722656 326.566406 296.242188 326.328125 L 284.707031 319.667969 C 281.925781 318.0625 280.96875 314.496094 282.574219 311.714844 C 283.351562 310.367188 284.609375 309.402344 286.109375 309 C 287.613281 308.597656 289.183594 308.804688 290.527344 309.582031 L 302.066406 316.242188 C 302.515625 316.542969 302.972656 316.832031 303.441406 317.101562 L 339.5625 337.957031 C 341.136719 338.867188 342.855469 339.300781 344.554688 339.296875 C 347.308594 339.296875 349.988281 338.144531 351.90625 336.058594 C 352.417969 335.507812 352.875 334.898438 353.25 334.25 C 356.015625 329.464844 354.375 323.347656 349.589844 320.589844 L 312.976562 299.445312 C 311.882812 298.664062 311.082031 297.558594 310.726562 296.246094 C 310.324219 294.742188 310.53125 293.175781 311.308594 291.828125 C 312.085938 290.480469 313.34375 289.515625 314.847656 289.113281 C 316.347656 288.710938 317.917969 288.917969 319.265625 289.695312 L 332.183594 297.15625 C 332.628906 297.453125 333.082031 297.738281 333.554688 298.011719 L 355.359375 310.601562 C 356.933594 311.507812 358.652344 311.941406 360.351562 311.941406 C 363.101562 311.941406 365.785156 310.785156 367.699219 308.703125 C 368.210938 308.148438 368.667969 307.539062 369.046875 306.890625 C 371.808594 302.109375 370.167969 295.992188 365.386719 293.230469 L 342.921875 280.261719 C 340.640625 278.511719 339.949219 275.292969 341.421875 272.738281 C 342.199219 271.390625 343.457031 270.425781 344.957031 270.023438 C 346.460938 269.625 348.027344 269.828125 349.375 270.605469 L 379.714844 288.121094 L 381.425781 289.109375 L 400.269531 299.988281 L 425.523438 314.570312 C 441.175781 323.609375 452.359375 338.203125 457.011719 355.667969 L 461.03125 370.753906 C 461.714844 373.320312 463.394531 375.511719 465.695312 376.839844 L 497.003906 394.917969 C 498.578125 395.824219 500.296875 396.257812 501.992188 396.257812 C 505.449219 396.257812 508.8125 394.464844 510.664062 391.257812 C 513.421875 386.476562 511.78125 380.359375 507 377.597656 Z M 507 377.597656 " style=" stroke:none;fill-rule:nonzero;fill:rgb(0%,0%,0%);fill-opacity:1;" />
</g>
</svg>